<svg width="337" height="52" viewBox="0 0 337 52" fill="none" xmlns="http://www.w3.org/2000/svg">
<rect x="0.5" y="0.5" width="336" height="51" rx="7.5" stroke="#3C4242"/>
<path d="M20.9561 29.554L21.8241 28.98C22.1461 29.834 23.2661 30.604 24.7781 30.604C26.3461 30.604 27.0041 30.016 27.0041 28.966C27.0041 27.776 25.2261 27.496 24.4001 27.258C23.5181 27.02 21.2781 26.642 21.2781 24.766C21.2781 23.058 22.7341 22.246 24.6801 22.246C26.3601 22.246 27.7041 23.058 28.0401 24.052L27.1721 24.57C26.9201 23.898 25.8841 23.296 24.5681 23.296C23.2101 23.296 22.4681 23.828 22.4681 24.724C22.4681 25.844 24.0921 26.082 24.9881 26.32C25.8001 26.558 28.1661 27.034 28.1661 28.924C28.1661 30.716 26.8641 31.654 24.6801 31.654C22.7201 31.654 21.3901 30.744 20.9561 29.554ZM32.6263 24.948C34.4743 24.948 35.7063 26.362 35.7063 28.28V28.602H30.4283C30.5543 29.89 31.4363 30.744 32.7103 30.744C33.6623 30.744 34.3203 30.31 34.6843 29.764L35.3983 30.282C34.8383 31.108 33.8863 31.626 32.7103 31.626C30.7503 31.626 29.4483 30.198 29.4483 28.28C29.4483 26.362 30.6943 24.948 32.6263 24.948ZM32.6263 25.788C31.3663 25.788 30.5683 26.642 30.4283 27.902H34.7683C34.6283 26.684 33.8303 25.788 32.6263 25.788ZM42.2153 26.81C41.8513 26.306 41.2493 25.928 40.3673 25.928C38.9813 25.928 38.0713 26.908 38.0713 28.28C38.0713 29.652 38.9813 30.646 40.3673 30.646C41.2493 30.646 41.8373 30.268 42.2153 29.764L42.9573 30.31C42.3973 31.122 41.4733 31.612 40.3393 31.612C38.4073 31.612 37.0773 30.212 37.0773 28.28C37.0773 26.348 38.4073 24.962 40.3393 24.962C41.4733 24.962 42.3973 25.452 42.9573 26.25L42.2153 26.81ZM49.0166 25.06H50.0246V31.5H49.0166V30.646C48.5266 31.318 47.7426 31.612 46.9446 31.612C45.6566 31.612 44.3826 30.856 44.3826 29.036V25.06H45.3906V28.91C45.3906 30.142 46.2586 30.744 47.2106 30.744C48.1626 30.744 49.0166 30.142 49.0166 28.91V25.06ZM52.8008 26.25C53.2908 25.368 54.1588 24.976 55.0688 24.962V25.928C54.0748 25.942 52.8008 26.46 52.8008 28.028V31.5H51.7928V25.06H52.8008V26.25ZM57.0299 23.688C56.7219 23.688 56.4139 23.436 56.4139 23.058C56.4139 22.68 56.7219 22.456 57.0299 22.456C57.3379 22.456 57.6459 22.68 57.6459 23.058C57.6459 23.436 57.3379 23.688 57.0299 23.688ZM57.5339 31.5H56.5259V25.06H57.5479L57.5339 31.5ZM62.446 25.858H60.906V29.82C60.906 30.506 61.326 30.674 61.802 30.674H62.376V31.5H61.438C60.458 31.5 59.884 30.94 59.884 29.96V25.858H58.988V25.06H59.884V23.1H60.906V25.06H62.446V25.858ZM68.2757 25.06H69.3257L65.7417 34.076H64.7477L65.7557 31.486L63.2357 25.06H64.2857L66.2737 30.1L68.2757 25.06ZM80.564 24.738C79.99 23.926 78.982 23.352 77.736 23.352C75.65 23.352 74.236 24.864 74.236 26.95C74.236 29.036 75.65 30.548 77.736 30.548C78.982 30.548 79.99 29.946 80.564 29.134L81.418 29.778C80.634 30.912 79.346 31.612 77.736 31.612C75.034 31.612 73.186 29.652 73.186 26.95C73.186 24.248 75.034 22.288 77.736 22.288C79.346 22.288 80.634 22.988 81.418 24.122L80.564 24.738ZM85.6755 31.626C83.7435 31.626 82.3995 30.198 82.3995 28.28C82.3995 26.348 83.7435 24.948 85.6755 24.948C87.6075 24.948 88.9515 26.348 88.9515 28.28C88.9515 30.198 87.6075 31.626 85.6755 31.626ZM85.6755 30.646C87.0335 30.646 87.9295 29.638 87.9295 28.28C87.9295 26.922 87.0335 25.928 85.6755 25.928C84.3175 25.928 83.4075 26.922 83.4075 28.28C83.4075 29.638 84.3175 30.646 85.6755 30.646ZM95.8455 22.4H96.8675V31.5H95.8455V30.338C95.3555 31.108 94.5435 31.612 93.4515 31.612C91.6175 31.612 90.3155 30.198 90.3155 28.28C90.3155 26.348 91.6175 24.962 93.4515 24.962C94.5435 24.962 95.3555 25.452 95.8455 26.222V22.4ZM93.5775 30.646C94.9635 30.646 95.8455 29.652 95.8455 28.28C95.8455 26.908 94.9635 25.928 93.5775 25.928C92.2055 25.928 91.2955 26.908 91.2955 28.28C91.2955 29.652 92.2055 30.646 93.5775 30.646ZM101.601 24.948C103.449 24.948 104.681 26.362 104.681 28.28V28.602H99.403C99.529 29.89 100.411 30.744 101.685 30.744C102.637 30.744 103.295 30.31 103.659 29.764L104.373 30.282C103.813 31.108 102.861 31.626 101.685 31.626C99.725 31.626 98.423 30.198 98.423 28.28C98.423 26.362 99.669 24.948 101.601 24.948ZM101.601 25.788C100.341 25.788 99.543 26.642 99.403 27.902H103.743C103.603 26.684 102.805 25.788 101.601 25.788Z" fill="#807D7E"/>
<path d="M298.424 26.9764C298.14 26.3572 298.14 25.6428 298.424 25.0235C299.742 22.157 302.639 20.1666 306 20.1666C309.362 20.1666 312.258 22.157 313.576 25.0235C313.861 25.6428 313.861 26.3572 313.576 26.9764C312.258 29.8429 309.362 31.8333 306 31.8333C302.639 31.8333 299.742 29.8429 298.424 26.9764Z" stroke="#807D7E" stroke-width="1.5"/>
<path d="M308.5 26C308.5 27.3807 307.381 28.5 306 28.5C304.619 28.5 303.5 27.3807 303.5 26C303.5 24.6192 304.619 23.5 306 23.5C307.381 23.5 308.5 24.6192 308.5 26Z" stroke="#807D7E" stroke-width="1.5"/>
</svg>
